<svg width="113" height="113" viewBox="0 0 113 113" fill="none" xmlns="http://www.w3.org/2000/svg">
<g id="devicon:mongodb">
<path id="Vector" fill-rule="evenodd" clip-rule="evenodd" d="M77.3298 37.5379C78.7371 41.6089 79.7507 45.765 80.0838 50.0728C80.4977 55.417 80.3083 60.7234 79.1816 65.9799C79.1509 66.1246 79.086 66.2605 79.0378 66.4008C78.6845 66.4017 78.3241 66.3578 77.9786 66.4113C75.0597 66.8699 72.1434 67.3451 69.2271 67.8177C66.2127 68.3061 63.1938 68.7752 60.1846 69.2969C59.1184 69.481 57.7988 69.261 57.3683 70.7358C57.356 70.7761 57.2332 70.7831 57.1622 70.8059L57.3078 61.9931L57.1596 40.7286L58.5642 40.4875C60.8615 40.1113 63.1587 39.7299 65.4577 39.3643C68.2013 38.9285 70.9475 38.505 73.6928 38.0797C74.9036 37.8912 76.1163 37.7185 77.3298 37.5379Z" fill="#439934"/>
<path id="Vector_2" fill-rule="evenodd" clip-rule="evenodd" d="M54.2635 96.4966C52.7816 95.2226 51.2481 94.0047 49.8277 92.6649C42.1845 85.4557 36.5939 76.9708 33.8407 66.741C33.0823 63.9256 32.5764 61.0646 32.4142 58.1553C32.3002 56.1193 32.1353 54.065 32.2791 52.0395C32.6623 46.6524 33.4409 41.317 35.0209 36.128L35.1077 36.007C35.2612 36.2113 35.4821 36.3919 35.5602 36.6225C37.1025 41.1644 38.6334 45.7098 40.1564 50.2579C44.9421 64.5499 49.7216 78.8455 54.5151 93.134C54.6089 93.4128 54.8518 93.6417 55.0263 93.8933L54.2635 96.4966Z" fill="#45A538"/>
<path id="Vector_3" fill-rule="evenodd" clip-rule="evenodd" d="M77.3295 37.5381C76.116 37.7187 74.9025 37.8914 73.6916 38.0782C70.9463 38.5034 68.2002 38.9269 65.4566 39.3627C63.1576 39.7283 60.8604 40.1098 58.5631 40.4859L57.1584 40.727L57.1479 39.8108C57.1015 39.0576 57.0217 38.3053 57.0129 37.5521C56.9524 32.7489 56.9147 27.9457 56.8551 23.1426C56.8182 20.136 56.763 17.1303 56.7016 14.1245C56.6639 12.2569 56.6236 10.3884 56.5394 8.52347C56.4938 7.52127 56.3325 6.52434 56.2667 5.52214C56.2299 4.94607 56.2808 4.36562 56.2922 3.78693C57.0085 5.17492 57.7091 6.57344 58.4456 7.95091C59.6091 10.1289 61.4627 11.7335 63.1313 13.4845C69.7276 20.4043 74.4106 28.4499 77.3295 37.5381Z" fill="#46A037"/>
<path id="Vector_4" fill-rule="evenodd" clip-rule="evenodd" d="M57.1605 70.8049C57.2315 70.7821 57.3552 70.7751 57.3666 70.7348C57.7971 69.26 59.1167 69.4801 60.1829 69.2959C63.1921 68.7751 66.211 68.3051 69.2255 67.8168C72.1417 67.3442 75.058 66.8689 77.9769 66.4104C78.3224 66.356 78.6828 66.4007 79.0361 66.3998C78.4907 68.3464 78.0611 70.335 77.3693 72.228C76.5837 74.3753 75.6332 76.4709 74.624 78.5253C73.1131 81.5895 71.2432 84.4631 69.0536 87.0856C67.371 89.1093 65.4955 90.9795 63.6156 92.827C62.5766 93.8485 61.3517 94.6805 60.2118 95.5986L59.9163 95.3969L58.8519 94.4868L57.7506 92.0729C56.9984 89.257 56.588 86.3608 56.5283 83.4468L56.5485 82.9549L56.6984 80.8278C56.7484 80.1018 56.8151 79.3767 56.8457 78.6489C56.9589 76.0342 57.0571 73.4196 57.1605 70.8049Z" fill="#409433"/>
<path id="Vector_5" fill-rule="evenodd" clip-rule="evenodd" d="M57.1614 70.8052C57.0579 73.4199 56.9597 76.0346 56.8483 78.6501C56.8176 79.3778 56.751 80.103 56.701 80.829L56.0303 81.0824C54.5406 76.6965 53.05 72.3572 51.5918 68.0065C49.1806 60.8087 46.7983 53.5996 44.3906 46.4C42.4459 40.5889 40.4877 34.7824 38.5159 28.9804C38.4239 28.7086 38.1591 28.4964 37.9749 28.2562L42.2678 20.3631C42.4151 20.6191 42.6098 20.8585 42.7027 21.1338C44.6909 27.0103 46.669 32.8902 48.637 38.7735C51.1938 46.4281 53.7348 54.0888 56.2898 61.7443C56.3915 62.0503 56.5599 62.3326 56.7203 62.6754L57.3078 61.9915L57.1614 70.8052Z" fill="#4FAA41"/>
<path id="Vector_6" fill-rule="evenodd" clip-rule="evenodd" d="M37.9738 28.2567C38.1579 28.4969 38.4218 28.7091 38.5148 28.9809C40.4865 34.7829 42.4447 40.5895 44.3894 46.4006C46.7972 53.6001 49.1795 60.8092 51.5907 68.007C53.048 72.3568 54.5385 76.6971 56.0291 81.0829L56.6999 80.8295L56.5499 82.9566L56.414 83.4468C56.1808 85.7756 55.9844 88.1097 55.7003 90.4332C55.5574 91.5976 55.254 92.741 55.0234 93.894C54.8498 93.6423 54.606 93.4135 54.5122 93.1347C49.7187 78.8453 44.9392 64.5506 40.1535 50.2585C38.6311 45.7102 37.099 41.1651 35.5573 36.6232C35.4793 36.3926 35.2592 36.212 35.1049 36.0077L37.9738 28.2567Z" fill="#4AA73C"/>
<path id="Vector_7" fill-rule="evenodd" clip-rule="evenodd" d="M57.3055 61.9923L56.718 62.6762C56.5575 62.3334 56.3892 62.0501 56.2875 61.745C53.7333 54.0896 51.1915 46.4289 48.6347 38.7743C46.6667 32.891 44.6886 27.0111 42.7004 21.1346C42.6083 20.8592 42.4137 20.619 42.2655 20.3638L47.5746 13.38C47.7421 13.6036 47.9806 13.8027 48.0674 14.0543C49.5413 18.3691 51.0021 22.6892 52.4541 27.0118C53.8105 31.0487 55.1468 35.0917 56.519 39.1232C56.611 39.3933 56.9311 39.5845 57.145 39.8124L57.1555 40.7287C57.2064 47.8151 57.2564 54.9041 57.3055 61.9923Z" fill="#57AE47"/>
<path id="Vector_8" fill-rule="evenodd" clip-rule="evenodd" d="M57.1493 39.8103C56.9354 39.5824 56.6154 39.3912 56.5233 39.1212C55.1511 35.0896 53.8148 31.0466 52.4584 27.0098C51.0064 22.6871 49.5456 18.3679 48.0717 14.0522C47.9849 13.8006 47.7464 13.6015 47.5789 13.3779C49.3054 11.6875 50.9783 9.93646 52.774 8.324C54.3707 6.89129 55.6544 5.35511 55.7131 3.09118C55.7158 2.99737 55.7649 2.90355 55.8403 2.6405L56.2953 3.78562C56.2839 4.36519 56.2322 4.94477 56.2699 5.52083C56.3357 6.52303 56.497 7.51997 56.5426 8.52216C56.6268 10.3871 56.6671 12.2556 56.7048 14.1232C56.7653 17.129 56.8205 20.1347 56.8582 23.1413C56.917 27.9444 56.9556 32.7476 57.0161 37.5508C57.0231 38.3057 57.102 39.0572 57.1493 39.8103Z" fill="#60B24F"/>
<path id="Vector_9" fill-rule="evenodd" clip-rule="evenodd" d="M55.0231 93.8933C55.2537 92.7403 55.5571 91.5961 55.7 90.4325C55.985 88.1098 56.1805 85.7749 56.4137 83.4461L56.4716 83.4373L56.5295 83.447C56.5891 86.361 56.9995 89.2572 57.7517 92.073C57.5974 92.2765 57.3791 92.458 57.2975 92.6877C56.6601 94.4851 56.0595 96.2966 55.4185 98.0941C55.3309 98.3396 55.0871 98.5308 54.9152 98.7465L54.2603 96.4966L55.0231 93.8933Z" fill="#A9AA88"/>
<path id="Vector_10" fill-rule="evenodd" clip-rule="evenodd" d="M54.9149 98.7475C55.0868 98.5318 55.3314 98.3406 55.4182 98.0951C56.0592 96.2977 56.6607 94.4871 57.2972 92.6887C57.3788 92.459 57.5962 92.2775 57.7514 92.0741L58.8518 94.4888C58.6344 94.7974 58.3345 95.0754 58.2135 95.4191L56.1056 101.609C56.0188 101.857 55.7225 102.032 55.5243 102.242L54.9149 98.7475Z" fill="#B6B598"/>
<path id="Vector_11" fill-rule="evenodd" clip-rule="evenodd" d="M55.5287 102.241C55.7278 102.032 56.0233 101.856 56.1101 101.608L58.2179 95.4185C58.338 95.0757 58.6388 94.7969 58.8562 94.4883L59.9216 95.3975C59.4069 95.9061 59.121 96.4935 59.2929 97.2362L58.9693 98.2954C58.822 98.4769 58.609 98.6347 58.5362 98.8425C57.8006 100.949 57.0982 103.068 56.3573 105.175C56.2635 105.442 56.0031 105.652 55.819 105.887C55.7234 104.671 55.6261 103.457 55.5287 102.241Z" fill="#C2C1A7"/>
<path id="Vector_12" fill-rule="evenodd" clip-rule="evenodd" d="M55.8161 105.887C55.9994 105.651 56.2598 105.441 56.3545 105.175C57.0954 103.068 57.7977 100.95 58.5334 98.8422C58.6062 98.6353 58.8184 98.4766 58.9665 98.2951L58.5202 103.157C58.401 103.295 58.2283 103.415 58.1713 103.575C57.6671 104.99 57.1919 106.416 56.6859 107.831C56.5816 108.123 56.3817 108.381 56.2256 108.654C56.0871 108.472 55.8389 108.297 55.8275 108.107C55.7828 107.37 55.8135 106.627 55.8161 105.887Z" fill="#CECDB7"/>
<path id="Vector_13" fill-rule="evenodd" clip-rule="evenodd" d="M56.2243 108.654C56.3804 108.38 56.5803 108.122 56.6847 107.831C57.1915 106.417 57.6658 104.991 58.17 103.575C58.227 103.415 58.4006 103.295 58.519 103.157L58.5295 106.349L57.4615 109.088L56.2243 108.654Z" fill="#DBDAC7"/>
<path id="Vector_14" fill-rule="evenodd" clip-rule="evenodd" d="M57.4635 109.089L58.5315 106.35L58.7516 109.59L57.4635 109.089Z" fill="#EBE9DC"/>
<path id="Vector_15" fill-rule="evenodd" clip-rule="evenodd" d="M59.2908 97.2367C59.119 96.4941 59.4039 95.9057 59.9195 95.398L60.215 95.5997L59.2908 97.2367Z" fill="#CECDB7"/>
<path id="Vector_16" fill-rule="evenodd" clip-rule="evenodd" d="M56.533 83.4478L56.4751 83.4381L56.4173 83.4469L56.5532 82.9568L56.533 83.4478Z" fill="#4FAA41"/>
</g>
</svg>
