<svg width="113" height="113" viewBox="0 0 113 113" fill="none" xmlns="http://www.w3.org/2000/svg">
<g id="devicon:git" clip-path="url(#clip0_2683_127)">
<path id="Vector" d="M110.38 51.1172L61.3176 2.11645C58.494 -0.705484 53.9114 -0.705484 51.0833 2.11645L40.8963 12.2929L53.8197 25.2005C56.824 24.1878 60.2672 24.8671 62.6608 27.2578C65.0669 29.6637 65.7417 33.132 64.7029 36.1424L77.158 48.5833C80.1712 47.5457 83.6491 48.2161 86.0544 50.6237C89.4192 53.9818 89.4192 59.4256 86.0544 62.7854C85.2547 63.5845 84.3053 64.2183 83.2604 64.6508C82.2154 65.0832 81.0954 65.3058 79.9643 65.3058C78.8332 65.3058 77.7132 65.0832 76.6682 64.6508C75.6233 64.2183 74.6738 63.5845 73.8742 62.7854C72.6729 61.5848 71.8539 60.056 71.5205 58.3916C71.1871 56.7271 71.354 55.0013 72.0004 53.4314L60.3856 41.8307L60.3838 72.3626C61.2265 72.7771 61.9959 73.326 62.6617 73.9878C66.0247 77.3459 66.0247 82.7879 62.6617 86.1531C59.2978 89.5111 53.8455 89.5111 50.4851 86.1531C47.1221 82.7888 47.1221 77.3468 50.4851 73.9878C51.2909 73.1818 52.2492 72.5441 53.3043 72.1119V41.2973C52.2484 40.8663 51.2897 40.2281 50.4851 39.4204C47.9375 36.8777 47.3242 33.1435 48.6309 30.0175L35.89 17.2921L2.24887 50.8904C0.891654 52.2464 0.129211 54.0853 0.129211 56.0026C0.129211 57.92 0.891654 59.7589 2.24887 61.1148L51.3121 110.116C54.1375 112.937 58.7183 112.937 61.5481 110.116L110.381 61.3425C111.738 59.9861 112.5 58.1471 112.5 56.2296C112.5 54.3122 111.737 52.4733 110.38 51.1172Z" fill="#F34F29"/>
</g>
<defs>
<clipPath id="clip0_2683_127">
<rect width="112.232" height="112.232" fill="white" transform="translate(0.5)"/>
</clipPath>
</defs>
</svg>
