<svg width="21" height="21" viewBox="0 0 21 21" fill="none" xmlns="http://www.w3.org/2000/svg">
<g id="fluent:call-20-regular">
<path id="Vector" d="M7.487 2.26222L6.77 2.47822C6.13158 2.67075 5.56144 3.04164 5.12669 3.54725C4.69194 4.05287 4.41068 4.67215 4.316 5.33222C4.019 7.40022 4.683 9.81822 6.284 12.5912C7.881 15.3572 9.639 17.1392 11.574 17.9192C12.1957 18.1698 12.8763 18.2366 13.5349 18.1116C14.1935 17.9866 14.8023 17.6751 15.289 17.2142L15.831 16.7002C16.1829 16.3671 16.402 15.9176 16.4474 15.4351C16.4929 14.9527 16.3616 14.4702 16.078 14.0772L14.722 12.1972C14.5387 11.9434 14.2805 11.7533 13.9837 11.6536C13.6869 11.5539 13.3664 11.5496 13.067 11.6412L11.016 12.2682L10.963 12.2782C10.737 12.3112 10.215 11.8222 9.565 10.6962C8.885 9.51822 8.745 8.82922 8.932 8.65122L9.975 7.67822C10.356 7.32242 10.6163 6.85642 10.7194 6.3454C10.8225 5.83438 10.7633 5.30391 10.55 4.82822L9.888 3.35722C9.68894 2.91456 9.3357 2.55939 8.89413 2.35793C8.45256 2.15646 7.9518 2.12244 7.487 2.26222ZM8.978 3.76722L9.638 5.23822C9.76608 5.52353 9.80178 5.84175 9.7401 6.14836C9.67842 6.45496 9.52245 6.73462 9.294 6.94822L8.248 7.92222C7.578 8.55622 7.8 9.63822 8.7 11.1962C9.546 12.6622 10.318 13.3862 11.148 13.2602L11.272 13.2342L13.36 12.5972C13.4598 12.5666 13.5667 12.5679 13.6657 12.6011C13.7647 12.6343 13.8508 12.6976 13.912 12.7822L15.268 14.6622C15.41 14.8587 15.4758 15.1 15.4532 15.3413C15.4305 15.5827 15.321 15.8076 15.145 15.9742L14.602 16.4882C14.2543 16.8172 13.8195 17.0395 13.3493 17.1287C12.879 17.2179 12.393 17.1702 11.949 16.9912C10.251 16.3072 8.646 14.6802 7.151 12.0912C5.652 9.49622 5.045 7.28922 5.306 5.47422C5.37356 5.00265 5.57445 4.5602 5.88502 4.19896C6.19559 3.83773 6.6029 3.57274 7.059 3.43522L7.776 3.21922C8.00846 3.14936 8.25839 3.16645 8.47918 3.26727C8.69997 3.3681 8.87656 3.5458 8.976 3.76722" fill="#F5F5F5"/>
</g>
</svg>
