<svg width="72" height="73" viewBox="0 0 72 73" fill="none" xmlns="http://www.w3.org/2000/svg">
<g id="fluent-mdl2:party-leader" clip-path="url(#clip0_2683_235)">
<path id="Vector" d="M41.0625 33.4541C41.9531 33.8057 42.8203 34.1924 43.6641 34.6143C44.5078 35.0361 45.3281 35.5166 46.125 36.0557C45.6094 36.6182 45.1406 37.2041 44.7188 37.8135C44.2969 38.4229 43.9102 39.0791 43.5586 39.7822C41.7539 38.6104 39.832 37.7197 37.793 37.1104C35.7539 36.501 33.6562 36.1963 31.5 36.1963C29.4375 36.1963 27.4453 36.4658 25.5234 37.0049C23.6016 37.5439 21.8086 38.2939 20.1445 39.2549C18.4805 40.2158 16.9688 41.3877 15.6094 42.7705C14.25 44.1533 13.0781 45.6768 12.0938 47.3408C11.1094 49.0049 10.3477 50.7979 9.80859 52.7197C9.26953 54.6416 9 56.6338 9 58.6963H4.5C4.5 55.8838 4.91016 53.1768 5.73047 50.5752C6.55078 47.9736 7.73438 45.5713 9.28125 43.3682C10.8281 41.165 12.6562 39.208 14.7656 37.4971C16.875 35.7861 19.2656 34.4385 21.9375 33.4541C19.2891 31.7197 17.2266 29.54 15.75 26.915C14.2734 24.29 13.5234 21.3838 13.5 18.1963C13.5 15.7119 13.9688 13.3799 14.9062 11.2002C15.8438 9.02051 17.1211 7.11035 18.7383 5.46973C20.3555 3.8291 22.2656 2.54004 24.4688 1.60254C26.6719 0.665039 29.0156 0.196289 31.5 0.196289C33.9844 0.196289 36.3164 0.665039 38.4961 1.60254C40.6758 2.54004 42.5859 3.81738 44.2266 5.43457C45.8672 7.05176 47.1562 8.96191 48.0938 11.165C49.0312 13.3682 49.5 15.7119 49.5 18.1963C49.5 19.7432 49.3125 21.2549 48.9375 22.7314C48.5625 24.208 48 25.6025 47.25 26.915C46.5 28.2275 45.6211 29.4346 44.6133 30.5361C43.6055 31.6377 42.4219 32.6104 41.0625 33.4541ZM18 18.1963C18 20.0713 18.3516 21.8174 19.0547 23.4346C19.7578 25.0518 20.7188 26.4814 21.9375 27.7236C23.1562 28.9658 24.5859 29.9385 26.2266 30.6416C27.8672 31.3447 29.625 31.6963 31.5 31.6963C33.3516 31.6963 35.0977 31.3447 36.7383 30.6416C38.3789 29.9385 39.8086 28.9775 41.0273 27.7588C42.2461 26.54 43.2188 25.1104 43.9453 23.4697C44.6719 21.8291 45.0234 20.0713 45 18.1963C45 16.3447 44.6484 14.5986 43.9453 12.958C43.2422 11.3174 42.2812 9.8877 41.0625 8.66895C39.8438 7.4502 38.4023 6.47754 36.7383 5.75098C35.0742 5.02441 33.3281 4.67285 31.5 4.69629C29.625 4.69629 27.8789 5.04785 26.2617 5.75098C24.6445 6.4541 23.2148 7.41504 21.9727 8.63379C20.7305 9.85254 19.7578 11.2939 19.0547 12.958C18.3516 14.6221 18 16.3682 18 18.1963ZM69.75 47.4463C69.75 48.665 69.5625 49.8486 69.1875 50.9971C68.8125 52.1455 68.25 53.2119 67.5 54.1963V72.1963L58.5 67.6963L49.5 72.1963V54.1963C48.7734 53.2119 48.2227 52.1455 47.8477 50.9971C47.4727 49.8486 47.2734 48.665 47.25 47.4463C47.25 45.8994 47.543 44.4463 48.1289 43.0869C48.7148 41.7275 49.5117 40.5439 50.5195 39.5361C51.5273 38.5283 52.7227 37.7197 54.1055 37.1104C55.4883 36.501 56.9531 36.1963 58.5 36.1963C60.0469 36.1963 61.5 36.4893 62.8594 37.0752C64.2188 37.6611 65.4023 38.4697 66.4102 39.501C67.418 40.5322 68.2266 41.7275 68.8359 43.0869C69.4453 44.4463 69.75 45.8994 69.75 47.4463ZM58.5 40.6963C57.5625 40.6963 56.6836 40.8721 55.8633 41.2236C55.043 41.5752 54.3281 42.0557 53.7188 42.665C53.1094 43.2744 52.6289 43.9893 52.2773 44.8096C51.9258 45.6299 51.75 46.5088 51.75 47.4463C51.75 48.3838 51.9258 49.2627 52.2773 50.083C52.6289 50.9033 53.1094 51.6182 53.7188 52.2275C54.3281 52.8369 55.043 53.3174 55.8633 53.6689C56.6836 54.0205 57.5625 54.1963 58.5 54.1963C59.4375 54.1963 60.3164 54.0205 61.1367 53.6689C61.957 53.3174 62.6719 52.8369 63.2812 52.2275C63.8906 51.6182 64.3711 50.9033 64.7227 50.083C65.0742 49.2627 65.25 48.3838 65.25 47.4463C65.25 46.5088 65.0742 45.6299 64.7227 44.8096C64.3711 43.9893 63.8906 43.2744 63.2812 42.665C62.6719 42.0557 61.957 41.5752 61.1367 41.2236C60.3164 40.8721 59.4375 40.6963 58.5 40.6963ZM63 64.9189V57.7471C61.5938 58.3799 60.0938 58.6963 58.5 58.6963C56.9062 58.6963 55.4062 58.3799 54 57.7471V64.9189C54.75 64.5439 55.5 64.1807 56.25 63.8291C57 63.4775 57.75 63.0908 58.5 62.6689C59.25 63.0674 60 63.4424 60.75 63.7939C61.5 64.1455 62.25 64.5205 63 64.9189Z" fill="#0948B4"/>
</g>
<defs>
<clipPath id="clip0_2683_235">
<rect width="72" height="72" fill="white" transform="translate(0 0.196289)"/>
</clipPath>
</defs>
</svg>
