<svg width="80" height="81" viewBox="0 0 80 81" fill="none" xmlns="http://www.w3.org/2000/svg">
<g id="formkit:time">
<path id="Vector" d="M40 75.1963C20.7 75.1963 5 59.4963 5 40.1963C5 20.8963 20.7 5.19629 40 5.19629C59.3 5.19629 75 20.8963 75 40.1963C75 59.4963 59.3 75.1963 40 75.1963ZM40 10.1963C23.45 10.1963 10 23.6463 10 40.1963C10 56.7463 23.45 70.1963 40 70.1963C56.55 70.1963 70 56.7463 70 40.1963C70 23.6463 56.55 10.1963 40 10.1963Z" fill="#0948B4"/>
<path id="Vector_2" d="M50 52.6963C49.55 52.6963 49.1 52.5963 48.7 52.3463L36.2 44.8463C35.8314 44.6219 35.5272 44.306 35.3169 43.9293C35.1067 43.5525 34.9975 43.1277 35 42.6963V22.6963C35 21.2963 36.1 20.1963 37.5 20.1963C38.9 20.1963 40 21.2963 40 22.6963V41.2963L51.3 48.0463C51.7654 48.3316 52.1252 48.7608 52.3247 49.2689C52.5242 49.7771 52.5526 50.3364 52.4057 50.8621C52.2587 51.3879 51.9443 51.8514 51.5102 52.1823C51.0761 52.5133 50.5459 52.6938 50 52.6963Z" fill="#0948B4"/>
</g>
</svg>
