<svg width="211" height="71" viewBox="0 0 211 71" fill="none" xmlns="http://www.w3.org/2000/svg">
<g id="logos:google" clip-path="url(#clip0_2683_294)">
<path id="Vector" d="M203.959 42.9763L209.785 46.9217C207.894 49.7509 203.371 54.605 195.553 54.605C185.843 54.605 178.613 46.9738 178.613 37.2659C178.613 26.9355 185.92 19.9271 194.735 19.9271C203.601 19.9271 207.945 27.0909 209.35 30.9584L210.117 32.9313L187.274 42.535C189.012 46.0134 191.721 47.7784 195.553 47.7784C199.386 47.7784 202.043 45.8575 203.959 42.9763ZM186.048 36.7213L201.302 30.2838C200.459 28.1296 197.955 26.5984 194.965 26.5984C191.158 26.5984 185.869 30.0246 186.048 36.7213Z" fill="#FF302F"/>
<path id="Vector_2" d="M167.601 2.25085H174.959V53.0217H167.601V2.25085Z" fill="#20B15A"/>
<path id="Vector_3" d="M156 21.2767H163.104V52.1129C163.104 64.9092 155.668 70.1783 146.879 70.1783C138.6 70.1783 133.618 64.52 131.753 59.9258L138.268 57.1742C139.443 60.0033 142.28 63.3521 146.879 63.3521C152.525 63.3521 156 59.7958 156 53.1512V50.6596H155.745C154.058 52.7358 150.839 54.6046 146.751 54.6046C138.217 54.6046 130.398 47.0512 130.398 37.3179C130.398 27.5321 138.217 19.9012 146.751 19.9012C150.814 19.9012 154.058 21.7442 155.745 23.7687H156V21.2767ZM156.511 37.3179C156.511 31.1921 152.5 26.7275 147.39 26.7275C142.228 26.7275 137.885 31.1921 137.885 37.3179C137.885 43.3654 142.228 47.7521 147.39 47.7521C152.5 47.7783 156.512 43.3654 156.512 37.3179" fill="#3686F7"/>
<path id="Vector_4" d="M90.0027 37.1879C90.0027 47.1813 82.3377 54.5267 72.9348 54.5267C63.5324 54.5267 55.867 47.1554 55.867 37.1879C55.867 27.1429 63.5324 19.8234 72.9348 19.8234C82.3377 19.8234 90.0027 27.1429 90.0027 37.1879ZM82.5419 37.1879C82.5419 30.9588 78.0958 26.6754 72.9348 26.6754C67.7738 26.6754 63.3277 30.9588 63.3277 37.1879C63.3277 43.3654 67.7738 47.7004 72.9348 47.7004C78.0962 47.7004 82.5419 43.3654 82.5419 37.1879Z" fill="#FF302F"/>
<path id="Vector_5" d="M127.281 37.2659C127.281 47.2592 119.616 54.6046 110.214 54.6046C100.811 54.6046 93.1457 47.2588 93.1457 37.2659C93.1457 27.2209 100.811 19.9271 110.214 19.9271C119.616 19.9271 127.281 27.195 127.281 37.2659ZM119.795 37.2659C119.795 31.0367 115.349 26.7534 110.188 26.7534C105.026 26.7534 100.581 31.0367 100.581 37.2659C100.581 43.4434 105.027 47.7784 110.188 47.7784C115.375 47.7784 119.795 43.4175 119.795 37.2659Z" fill="#FFBA40"/>
<path id="Vector_6" d="M27.8123 46.9997C17.1064 46.9997 8.72611 38.2263 8.72611 27.3505C8.72611 16.4751 17.1064 7.70175 27.8123 7.70175C33.5869 7.70175 37.8025 10.0118 40.9197 12.9709L46.0557 7.75383C41.7121 3.523 35.9121 0.303833 27.8123 0.303833C13.1464 0.30425 0.805176 12.4522 0.805176 27.3505C0.805176 42.2488 13.1464 54.3972 27.8123 54.3972C35.7333 54.3972 41.7121 51.7497 46.3879 46.818C51.1912 41.938 52.6731 35.0855 52.6731 29.5309C52.6731 27.7917 52.4689 26.0009 52.2388 24.6772H27.8123V31.893H45.2124C44.7013 36.4097 43.2961 39.4984 41.2265 41.6005C38.7225 44.1705 34.7624 46.9997 27.8123 46.9997Z" fill="#3686F7"/>
</g>
<defs>
<clipPath id="clip0_2683_294">
<rect width="210" height="70" fill="white" transform="translate(0.5 0.196289)"/>
</clipPath>
</defs>
</svg>
