<svg width="23" height="23" viewBox="0 0 23 23" fill="none" xmlns="http://www.w3.org/2000/svg">
<g id="mail_FILL0_wght300_GRAD0_opsz48 1">
<path id="Vector" d="M4.11823 18.0713C3.75156 18.0713 3.43837 17.9414 3.17865 17.6817C2.91892 17.422 2.78906 17.1088 2.78906 16.7421V5.65046C2.78906 5.28379 2.91892 4.97059 3.17865 4.71087C3.43837 4.45115 3.75156 4.32129 4.11823 4.32129H18.8766C19.2432 4.32129 19.5564 4.45115 19.8161 4.71087C20.0759 4.97059 20.2057 5.28379 20.2057 5.65046V16.7421C20.2057 17.1088 20.0759 17.422 19.8161 17.6817C19.5564 17.9414 19.2432 18.0713 18.8766 18.0713H4.11823ZM11.4974 11.3338L3.82031 6.26921V16.7421C3.82031 16.8338 3.84705 16.9064 3.90052 16.9598C3.95399 17.0133 4.02656 17.04 4.11823 17.04H18.8766C18.9682 17.04 19.0408 17.0133 19.0943 16.9598C19.1477 16.9064 19.1745 16.8338 19.1745 16.7421V6.26921L11.4974 11.3338ZM11.4974 10.2338L18.9682 5.35254H4.04948L11.4974 10.2338ZM3.82031 6.26921V5.35254V16.7421C3.82031 16.8338 3.84705 16.9064 3.90052 16.9598C3.95399 17.0133 4.02656 17.04 4.11823 17.04H3.82031V16.7421V6.26921Z" fill="#F5F5F5"/>
</g>
</svg>
