<svg width="25" height="24" viewBox="0 0 25 24" fill="none" xmlns="http://www.w3.org/2000/svg">
<g id="material-symbols-light:search">
<path id="Vector" d="M16.5 14H15.71L15.43 13.73C16.0549 13.0039 16.5117 12.1487 16.7675 11.2256C17.0234 10.3024 17.072 9.33413 16.91 8.38998C16.44 5.60998 14.12 3.38997 11.32 3.04997C10.3356 2.92544 9.33576 3.02775 8.397 3.34906C7.45824 3.67038 6.60542 4.20219 5.90381 4.90381C5.20219 5.60542 4.67038 6.45824 4.34906 7.397C4.02775 8.33576 3.92544 9.33559 4.04997 10.32C4.38997 13.12 6.60998 15.44 9.38998 15.91C10.3341 16.072 11.3024 16.0234 12.2256 15.7675C13.1487 15.5117 14.0039 15.0549 14.73 14.43L15 14.71V15.5L19.25 19.75C19.66 20.16 20.33 20.16 20.74 19.75C21.15 19.34 21.15 18.67 20.74 18.26L16.5 14ZM10.5 14C8.00997 14 5.99997 11.99 5.99997 9.49997C5.99997 7.00997 8.00997 4.99997 10.5 4.99997C12.99 4.99997 15 7.00997 15 9.49997C15 11.99 12.99 14 10.5 14Z" fill="#F5F5F5"/>
</g>
</svg>
