<svg width="80" height="81" viewBox="0 0 80 81" fill="none" xmlns="http://www.w3.org/2000/svg">
<g id="mdi:application-brackets-outline">
<path id="Vector" d="M31.6667 28.5296L36.6667 33.5296L26.6667 43.5296L36.6667 53.5296L31.6667 58.5296L16.6667 43.5296L31.6667 28.5296ZM48.3333 58.5296L43.3333 53.5296L53.3333 43.5296L43.3333 33.5296L48.3333 28.5296L63.3333 43.5296L48.3333 58.5296ZM70 6.86296H10C8.2319 6.86296 6.53621 7.56534 5.28597 8.81558C4.03572 10.0658 3.33334 11.7615 3.33334 13.5296V66.863C3.33334 68.6311 4.03572 70.3268 5.28597 71.577C6.53621 72.8272 8.2319 73.5296 10 73.5296H70C71.7681 73.5296 73.4638 72.8272 74.7141 71.577C75.9643 70.3268 76.6667 68.6311 76.6667 66.863V13.5296C76.6667 11.7615 75.9643 10.0658 74.7141 8.81558C73.4638 7.56534 71.7681 6.86296 70 6.86296ZM70 66.863H10V20.1963H70V66.863Z" fill="#0948B4"/>
</g>
</svg>
