<svg width="113" height="113" viewBox="0 0 113 113" fill="none" xmlns="http://www.w3.org/2000/svg">
<g id="skill-icons:redux" clip-path="url(#clip0_2683_168)">
<g id="Group">
<path id="Vector" d="M86.4351 -0.00012207H26.8119C12.2843 -0.00012207 0.507477 11.7767 0.507477 26.3043V85.9275C0.507477 100.455 12.2843 112.232 26.8119 112.232H86.4351C100.963 112.232 112.739 100.455 112.739 85.9275V26.3043C112.739 11.7767 100.963 -0.00012207 86.4351 -0.00012207Z" fill="#764ABC"/>
<path id="Vector_2" d="M73.5368 72.5993C76.7727 72.2643 79.2273 69.4748 79.1155 66.1275C79.0042 62.7803 76.2146 60.1025 72.8674 60.1025H72.6442C69.1852 60.2139 66.5074 63.1148 66.6188 66.5738C66.7305 68.2476 67.4 69.6979 68.4039 70.7023C64.6104 78.178 58.8085 83.6454 50.1053 88.2201C44.1916 91.3442 38.0548 92.4599 31.918 91.6791C26.897 91.0097 22.9921 88.7778 20.537 85.096C16.9666 79.6287 16.6321 73.715 19.6444 67.8014C21.7645 63.5611 25.1118 60.437 27.2319 58.875C26.7856 57.4247 26.1162 54.9696 25.7812 53.1844C9.6027 64.9004 11.2761 80.7444 16.1854 88.2201C19.868 93.7988 27.3433 97.2579 35.6002 97.2579C37.8317 97.2579 40.0632 97.0347 42.2947 96.4766C56.5771 93.6875 67.4 85.2074 73.5368 72.5993Z" fill="white"/>
<path id="Vector_3" d="M93.1753 58.7637C84.6956 48.833 72.1989 43.366 57.9169 43.366H56.1317C55.1273 41.3573 53.0072 40.0184 50.6643 40.0184H50.4412C46.9822 40.1302 44.3044 43.0311 44.4157 46.4901C44.5275 49.8374 47.3167 52.5151 50.6643 52.5151H50.8875C53.3421 52.4038 55.4623 50.8417 56.3549 48.7216H58.3632C66.8428 48.7216 74.8766 51.1763 82.1292 55.9742C87.7079 59.6563 91.725 64.4543 93.9565 70.2561C95.8535 74.9423 95.7417 79.517 93.7334 83.4223C90.6093 89.336 85.3651 92.5719 78.447 92.5719C73.984 92.5719 69.7442 91.233 67.5123 90.2286C66.2852 91.3443 64.0537 93.1295 62.4917 94.2453C67.2891 96.4768 72.1989 97.7043 76.885 97.7043C87.5966 97.7043 95.5186 91.7906 98.5313 85.877C101.767 79.4057 101.544 68.2478 93.1753 58.7637Z" fill="white"/>
<path id="Vector_4" d="M36.4915 74.4964C36.6033 77.8436 39.3925 80.5214 42.7401 80.5214H42.9633C46.4219 80.4096 49.1001 77.5087 48.9883 74.0496C48.8769 70.7024 46.0874 68.0246 42.7401 68.0246H42.5165C42.2938 68.0246 41.9589 68.0246 41.7362 68.1364C37.161 60.5489 35.2644 52.292 35.9339 43.366C36.3802 36.6716 38.6117 30.8693 42.517 26.0709C45.7524 21.9429 52.001 19.9345 56.2409 19.8227C68.0682 19.5996 73.0892 34.3278 73.4238 40.2419C74.8744 40.5764 77.3291 41.3573 79.0029 41.9153C77.664 23.8403 66.5061 14.4672 55.7946 14.4672C45.7524 14.4672 36.4915 21.7197 32.8094 32.4313C27.6769 46.7133 31.0242 60.4371 37.2723 71.2605C36.7147 72.0413 36.3797 73.2688 36.4915 74.4964Z" fill="white"/>
</g>
</g>
<defs>
<clipPath id="clip0_2683_168">
<rect width="112.232" height="112.232" fill="white" transform="translate(0.49472 -6.10352e-05)"/>
</clipPath>
</defs>
</svg>
