<svg width="113" height="113" viewBox="0 0 113 113" fill="none" xmlns="http://www.w3.org/2000/svg">
<g id="vscode-icons:file-type-reactjs">
<path id="Vector" d="M56.3601 64.7928C61.2026 64.7928 65.1283 60.8672 65.1283 56.0247C65.1283 51.1822 61.2026 47.2566 56.3601 47.2566C51.5176 47.2566 47.592 51.1822 47.592 56.0247C47.592 60.8672 51.5176 64.7928 56.3601 64.7928Z" fill="#00D8FF"/>
<path id="Vector_2" d="M56.3601 76.1284C45.8213 76.3833 35.3089 74.9627 25.2158 71.9197C20.5533 70.4417 16.2047 68.1134 12.3897 65.0525C10.934 64.0068 9.72168 62.6586 8.83599 61.1003C7.95031 59.5421 7.41222 57.8106 7.25864 56.0248C7.25864 50.2274 13.6278 44.5456 24.2969 40.8279C34.6598 37.5337 45.4874 35.9372 56.3601 36.1002C67.0878 35.9503 77.7703 37.518 88.0025 40.7438C92.4928 42.1753 96.694 44.391 100.411 47.2883C101.842 48.2852 103.036 49.5846 103.909 51.0944C104.782 52.6041 105.312 54.2874 105.462 56.0248C105.462 62.0503 98.3419 68.1564 86.8732 71.9513C76.9755 74.8952 66.6849 76.3039 56.3601 76.1284ZM56.3601 40.2948C45.958 40.1558 35.6001 41.6735 25.6752 44.7911C15.8549 48.2177 11.4533 52.9034 11.4533 56.0143C11.4533 59.2691 16.1846 64.3861 26.5731 67.939C36.2288 70.8355 46.2824 72.1838 56.3601 71.9337C66.238 72.1104 76.0846 70.7738 85.558 67.9705C96.3428 64.3967 101.253 59.2726 101.253 56.0248C101.076 54.9103 100.67 53.8446 100.06 52.8951C99.4504 51.9455 98.6504 51.1327 97.7106 50.5079C94.3849 47.9376 90.6319 45.9739 86.6242 44.707C76.8356 41.6337 66.6188 40.1443 56.3601 40.2948Z" fill="#00D8FF"/>
<path id="Vector_3" d="M36.439 99.7563C34.8029 99.7939 33.1861 99.3969 31.7533 98.606C26.7309 95.709 24.9913 87.3547 27.0992 76.2543C29.4233 65.6311 33.4501 55.4538 39.0239 46.1165C44.2522 36.749 50.9456 28.2783 58.8503 21.0256C62.3336 17.8505 66.3519 15.3177 70.7189 13.5446C72.2984 12.8044 74.0214 12.4207 75.7658 12.4207C77.5102 12.4207 79.2332 12.8044 80.8127 13.5446C86.035 16.5538 87.7641 25.7709 85.3266 37.6008C82.9307 47.6476 79.0085 57.2675 73.6965 66.1253C68.6522 75.3822 62.1695 83.7791 54.4908 91.0022C50.8811 94.3018 46.6919 96.9048 42.1348 98.6796C40.3104 99.3567 38.3847 99.7208 36.439 99.7563ZM42.6574 48.1998C37.3407 57.1409 33.4812 66.8713 31.2237 77.0258C29.2842 87.2495 31.1466 93.3977 33.8542 94.9619C36.66 96.5858 43.471 95.0461 51.7411 87.8212C59.0714 80.9012 65.2589 72.8635 70.0735 64.0069C75.1623 55.5387 78.9248 46.3414 81.2301 36.7346C83.5238 25.599 81.5422 18.7809 78.7294 17.1606C77.6752 16.7567 76.5486 16.5758 75.4209 16.6296C74.2932 16.6833 73.1889 16.9704 72.1779 17.4727C68.2907 19.0768 64.717 21.354 61.6211 24.1996C54.0688 31.1468 47.6751 39.256 42.6819 48.2208L42.6574 48.1998Z" fill="#00D8FF"/>
<path id="Vector_4" d="M76.2726 99.8025C71.5203 99.8025 65.4843 96.9265 59.1993 91.5218C51.1562 84.2032 44.3496 75.6319 39.0432 66.1399C33.5394 56.9311 29.5444 46.901 27.2097 36.43C26.1972 31.8231 26.0096 27.0733 26.6556 22.401C26.8049 20.6677 27.3327 18.9883 28.2017 17.4812C29.0707 15.9741 30.2597 14.676 31.685 13.6784C36.9002 10.6587 45.749 13.7626 54.7802 21.7802C62.2878 28.8725 68.6633 37.0742 73.6843 46.0994C79.1847 55.0932 83.2216 64.9037 85.644 75.164C86.7001 79.9399 86.863 84.8699 86.1245 89.7051C85.9488 91.4882 85.3895 93.2122 84.4851 94.759C83.5807 96.3057 82.3525 97.6385 80.8847 98.6661C79.4753 99.4472 77.8835 99.8394 76.2726 99.8025ZM42.6732 64.0285C47.7637 73.0998 54.2656 81.303 61.935 88.3302C69.8228 95.1168 76.0797 96.5758 78.7698 94.994C81.5756 93.3631 83.6449 86.7064 81.5125 75.9356C79.1762 66.1397 75.3042 56.7752 70.0402 48.1898C65.2487 39.5518 59.1633 31.6982 51.9954 24.9016C43.4939 17.354 36.5986 15.667 33.7893 17.2944C32.9137 18.006 32.1951 18.8913 31.679 19.8946C31.1629 20.8979 30.8604 21.9973 30.7906 23.1235C30.233 27.2904 30.4146 31.523 31.3272 35.6268C33.5729 45.6405 37.4044 55.231 42.6767 64.0355L42.6732 64.0285Z" fill="#00D8FF"/>
</g>
</svg>
