<svg width="113" height="113" viewBox="0 0 113 113" fill="none" xmlns="http://www.w3.org/2000/svg">
<g id="vscode-icons:file-type-vscode">
<path id="Vector" d="M102.139 17.6412L81.9158 7.90504C80.7738 7.3544 79.4887 7.17268 78.2388 7.38509C76.9888 7.5975 75.8359 8.19351 74.9399 9.09049L8.74053 69.4433C7.93734 70.1721 7.45655 71.1901 7.40393 72.2734C7.35131 73.3567 7.73117 74.4165 8.45995 75.2197C8.54763 75.3144 8.63531 75.4056 8.73001 75.4898L14.1347 80.3999C14.8409 81.0427 15.75 81.4178 16.704 81.46C17.658 81.5023 18.5966 81.2091 19.357 80.6314L99.0943 20.1664C99.6966 19.7094 100.414 19.4295 101.167 19.3584C101.92 19.2872 102.677 19.4276 103.355 19.7637C104.032 20.0997 104.602 20.6182 105.001 21.2606C105.399 21.9031 105.61 22.644 105.611 23.4001V23.1651C105.611 22.0109 105.285 20.8801 104.671 19.9029C104.056 18.9257 103.179 18.1417 102.139 17.6412Z" fill="#0065A9"/>
<path id="Vector_2" d="M102.139 94.5902L81.9158 104.33C80.7734 104.879 79.4887 105.06 78.2392 104.847C76.9896 104.635 75.8367 104.04 74.9399 103.144L8.74053 42.7882C7.93734 42.0594 7.45655 41.0413 7.40393 39.9581C7.35131 38.8748 7.73117 37.8149 8.45995 37.0117C8.54763 36.917 8.63531 36.8258 8.73001 36.7417L14.1347 31.8315C14.8416 31.1861 15.7528 30.8093 16.7091 30.767C17.6655 30.7247 18.6063 31.0195 19.3675 31.6L99.0943 92.065C99.6966 92.5221 100.414 92.8019 101.167 92.873C101.92 92.9442 102.677 92.8038 103.355 92.4678C104.032 92.1317 104.602 91.6132 105.001 90.9708C105.399 90.3283 105.61 89.5874 105.611 88.8313V89.0839C105.607 90.235 105.279 91.3619 104.665 92.3356C104.051 93.3094 103.176 94.0907 102.139 94.5902Z" fill="#007ACC"/>
<path id="Vector_3" d="M81.9094 104.33C80.767 104.879 79.4823 105.06 78.2327 104.848C76.9832 104.635 75.8303 104.04 74.9335 103.145C75.4371 103.642 76.0763 103.979 76.7709 104.114C77.4654 104.25 78.1845 104.177 78.838 103.906C79.4915 103.634 80.0503 103.176 80.4445 102.588C80.8386 102 81.0505 101.309 81.0536 100.602V11.6299C81.0542 10.9189 80.8438 10.2238 80.449 9.63252C80.0541 9.04126 79.4927 8.58049 78.8358 8.30856C78.1789 8.03664 77.4561 7.9658 76.7589 8.10502C76.0617 8.24425 75.4215 8.58727 74.9194 9.09063C75.8156 8.19397 76.9683 7.59793 78.218 7.38493C79.4677 7.17193 80.7527 7.3525 81.8954 7.90168L102.115 17.6238C103.158 18.1218 104.039 18.9047 104.657 19.8821C105.274 20.8595 105.603 21.9916 105.604 23.1477V89.084C105.605 90.2392 105.279 91.371 104.664 92.3489C104.049 93.3269 103.17 94.1111 102.129 94.6114L81.9094 104.33Z" fill="#1F9CF0"/>
</g>
</svg>
